<?xml version="1.0" encoding="utf-8"?>
<!-- Svg Vector Icons : http://www.onlinewebfonts.com/icon -->
<!DOCTYPE svg PUBLIC "-//W3C//DTD SVG 1.1//EN" "http://www.w3.org/Graphics/SVG/1.1/DTD/svg11.dtd">
<svg version="1.1" xmlns="http://www.w3.org/2000/svg" xmlns:xlink="http://www.w3.org/1999/xlink" x="0px" y="0px" viewBox="0 0 1000 1000" enable-background="new 0 0 1000 1000" xml:space="preserve" fill="rgb(59, 59, 59)">
<metadata> Svg Vector Icons : http://www.onlinewebfonts.com/icon </metadata>
<g><g transform="translate(0.000000,511.000000) scale(0.100000,-0.100000)"><path fill="rgb(59, 59, 59)" d="M228.6,4668.7C93.9,4506.1,63.4,4313,144.7,4135.1c86.4-190.6,76.2-188,884.3-188h716.6l7.6-1631.4l7.6-1633.9l61-152.5c88.9-223.6,371-495.5,678.5-653.1c602.2-312.5,1346.8-452.3,2383.5-452.3c1783.9,0,3112.9,493,3331.4,1229.9c33,104.2,38.1,386.3,38.1,1710.2v1583.1h709h708.9l78.8,63.5c40.7,35.6,94,116.9,119.4,180.4c40.7,109.3,40.7,122,0,254.1c-22.9,76.2-78.8,177.9-122,226.2l-76.2,88.9H4988.1H302.3L228.6,4668.7z M3834.4,2247.1c88.9-91.5,94-155,12.7-249l-61-71.1l-391.3-7.6c-424.4-7.6-490.4,7.6-546.3,127.1c-40.6,83.8-2.5,205.8,76.2,243.9c30.5,15.2,226.2,27.9,444.7,27.9l391.3,2.5L3834.4,2247.1z M5473.4,2236.9c33-38.1,61-94,61-119.4s-28-81.3-61-119.4l-61-71.1l-391.4-7.6c-426.9-7.6-490.4,7.6-548.9,129.6c-28,55.9-28,81.3,0,137.2c58.4,122,122,137.2,548.9,129.6l391.4-7.6L5473.4,2236.9z M7112.4,2252.1c73.7-73.7,73.7-195.7,0-269.3c-50.8-50.8-83.8-55.9-449.8-63.5c-325.3-7.6-406.6-2.5-454.9,30.5c-86.4,55.9-119.4,132.1-101.6,221.1c30.5,132.1,104.2,149.9,551.4,142.3C7031.1,2308,7061.6,2305.5,7112.4,2252.1z"/><path d="M3481.2-1213.9c-157.6-78.8-327.8-256.7-406.6-424.4c-61-127.1-68.6-175.4-68.6-399c0-307.5,43.2-449.8,216-706.4c127.1-188.1,325.3-378.6,426.9-409.1c81.3-27.9,185.5-175.3,200.8-292.2c22.9-175.3-149.9-406.6-447.2-587c-175.3-109.3-226.2-251.6-137.2-381.2c68.6-99.1,114.4-124.5,223.6-127.1c226.2,0,655.6,358.3,805.5,675.9c73.7,155,83.9,200.8,83.9,391.3c0,193.1-10.2,236.3-83.9,386.3c-88.9,180.4-292.2,391.3-462.5,477.7c-233.8,119.4-381.2,541.2-266.8,759.8c20.3,40.6,91.5,106.7,160.1,152.5c132.1,83.9,183,162.6,183,284.6c0,104.2-38.1,167.7-127.1,213.5C3681.9-1147.8,3610.8-1150.4,3481.2-1213.9z"/><path d="M5107.5-1213.9c-152.5-76.2-332.9-264.3-409.1-429.5c-58.5-122-66.1-172.8-66.1-393.9c0-307.5,43.2-449.8,216-706.4c127.1-188.1,325.3-378.6,426.9-409.1c127.1-40.6,236.3-279.5,198.2-432c-22.9-94-254.1-332.9-419.3-432c-200.7-122-256.7-259.2-162.6-396.4c68.6-99.1,114.4-124.5,228.7-127.1c83.8,0,142.3,25.4,294.8,127.1c238.9,160.1,409.1,345.6,510.8,559c68.6,144.8,78.8,190.6,78.8,381.2c-2.5,180.4-12.7,241.4-68.6,363.4c-78.8,170.3-312.5,416.7-470.1,498.1c-175.3,88.9-310,330.4-312.5,556.5c0,175.4,45.7,259.2,198.2,358.3c134.7,86.4,183,162.6,183,289.7c-2.6,88.9-30.5,137.2-127.1,203.3C5323.5-1145.3,5239.6-1150.4,5107.5-1213.9z"/><path d="M6754.1-1211.4c-157.6-83.8-294.8-221.1-381.2-386.3c-73.7-137.2-88.9-190.6-96.6-378.6c-12.7-251.6,27.9-429.5,155-670.9c94-175.3,340.5-434.5,487.9-510.7c132.1-68.6,228.7-246.5,205.8-376.1c-25.4-132.1-175.3-304.9-396.4-459.9c-109.3-78.8-205.8-157.5-213.5-180.4c-43.2-109.3,15.3-289.7,109.3-340.5c27.9-12.7,94-25.4,149.9-25.4c213.5,0,642.9,365.9,795.4,678.5c76.2,152.5,86.4,195.7,86.4,376.1c0,175.3-12.7,226.2-81.3,371c-99.1,210.9-221.1,348.1-426.9,477.7c-167.7,106.7-236.3,182.9-299.8,335.4c-109.3,264.3-61,462.5,142.3,604.8c142.3,96.6,195.7,170.2,195.7,261.7C7186.1-1208.8,6970.1-1094.5,6754.1-1211.4z"/></g></g>
</svg>