<?xml version="1.0" encoding="utf-8"?>
<!-- Svg Vector Icons : http://www.onlinewebfonts.com/icon -->
<!DOCTYPE svg PUBLIC "-//W3C//DTD SVG 1.1//EN" "http://www.w3.org/Graphics/SVG/1.1/DTD/svg11.dtd">
<svg version="1.1" xmlns="http://www.w3.org/2000/svg" xmlns:xlink="http://www.w3.org/1999/xlink" x="0px" y="0px" viewBox="0 0 1000 1000" enable-background="new 0 0 1000 1000" xml:space="preserve" fill="rgb(59, 59, 59)">
<metadata> Svg Vector Icons : http://www.onlinewebfonts.com/icon </metadata>
<g><path fill="rgb(59, 59, 59)" d="M682.7,527.2c-2.8-2.7-3.8-5.5-3.8-9.3C679,457.3,679,396.6,679,336c0-58-0.1-115.9,0-173.9c0.1-28.7-8.4-54.6-25-77.7c-19.4-27-45.2-46.1-75.9-57.8C510.7,1,444.7,4.5,381.7,40.7c-20.9,12-38.2,28.5-51.4,48.7c-15.2,23.2-21.7,48.5-21.6,76.2c0.3,117.1,0.1,234.2,0.2,351.3c0,4.6-1.4,7.8-4.6,11c-68.1,70.1-93.8,153.7-73.9,249.2c28.9,139.1,163.1,231,303.2,209.8c53-8,100-29.2,139.6-65.5c71.2-65.4,100.6-146.8,87.4-242.5C752.4,619.8,725.5,569.2,682.7,527.2z M688.7,751.6c-9.5,55.7-37.9,99.4-84,131.6c-25.2,17.6-53.3,28.2-83.8,32.3c-57,7.5-107.9-7.1-152.4-43.1c-36.3-29.4-59.8-67.6-68.2-113.6c-13.8-75.1,8.7-138.6,65.7-189.7c4.8-4.2,11.6-7.4,14-12.7c2.5-5.5,0.7-12.9,0.7-19.5c0-122.8,0.4-245.7-0.3-368.5c-0.1-28.8,12.4-49.1,35.5-63.9c28.5-18.4,60.1-24,93.6-20.8c25.2,2.4,48.5,10.1,68.7,25.6c18.6,14.3,28.7,32.5,28.6,56.8c-0.5,63.3-0.2,126.7-0.2,190.1c0,64.5,0.1,129.1-0.1,193.6c-0.1,5,1.2,8.4,5.2,11.5c28.1,21.7,49.9,48.3,63.7,81.2C690.5,677.6,695.1,714,688.7,751.6z"/><path d="M714.9,197.7c7.3,0.2,14.6,0,21.8,0c7.3,0,14.5,0.2,21.8,0c10-0.3,17.4-7.6,17.7-17.2c0.3-9.5-7.1-17.8-17.3-18.1c-14.9-0.4-29.7-0.4-44.5,0.1c-10.3,0.3-17.4,8.2-17.1,18.2C697.5,190.2,704.6,197.4,714.9,197.7z"/><path d="M758.5,327.2c-7-0.1-14.2,0-21.2,0c0,0,0,0,0-0.1c-7.1,0-14.2,0-21.2,0c-0.5,0-1,0.1-1.5,0.1c-9.5,0.5-16.8,7.3-17.2,16.5c-0.5,9.8,6.1,18.2,15.9,18.7c15.5,0.6,31,0.5,46.6,0c9.5-0.3,16.6-8.6,16.3-17.8C775.9,334.9,768.5,327.5,758.5,327.2z"/><path d="M756.5,307.8c0.4,0,0.8,0,1-0.1c8.7-0.4,15.2-4.8,17.6-12c4-11.8-4-23.1-16.9-23.5c-14.2-0.4-28.4-0.1-42.5-0.1c-2.4,0.1-4.8,0.5-6.9,1.2c-8,2.7-12.5,10.5-11.4,19.1c1,8.4,8.1,14.7,17.6,15c7.3,0.4,14.6,0.1,21.8,0.1v0.1C743.3,307.8,750,307.8,756.5,307.8z"/><path d="M758.1,382.1c-7.1-0.1-14.2,0-21.2,0c-7.3,0-14.6-0.1-21.8,0c-10.2,0.2-17.7,7.6-17.7,17.5c-0.1,10.1,7.4,17.7,17.9,17.8c14.4,0.1,28.6,0.1,43.1,0c10.1-0.1,17.8-7.8,17.8-17.5C776.3,390.1,768.5,382.3,758.1,382.1z"/><path d="M758.3,437c-14.6-0.3-29.1-0.3-43.5,0c-10.3,0.3-17.6,8.1-17.5,17.9c0,9.8,7.4,17.2,17.7,17.4c7.3,0.1,14.6,0,21.8,0c7,0,14.2,0.1,21.2,0c10.3-0.2,17.9-7.6,18.1-17.3C776.4,445.2,768.6,437.2,758.3,437z"/><path d="M760.4,252.3c7.5-0.5,12.5-4.9,14.8-12c3.8-11.8-4.3-22.8-17.4-23.1c-14.2-0.4-28.4-0.1-42.5,0c-2.4,0-4.7,0.6-6.9,1.4c-7.6,2.9-12.1,10.6-11,19c0.9,7.7,7.1,14.2,15,14.7c7.9,0.6,15.8,0.1,23.7,0.1c0,0.1,0,0.1,0,0.1C744.3,252.4,752.4,252.8,760.4,252.3z"/><path d="M554.7,596.6c-4-2.1-5.5-4.2-5.5-8.8c0.1-54.8,0.1-109.4,0.1-164.2c0-53.9-0.1-107.7,0.1-161.7c0.1-15.2-6.8-26.1-19.1-34c-18-11.6-37.6-13.4-57.7-7.2c-19.5,5.9-34.8,20-34.6,46.1c0.8,107.2,0.4,214.2,0.4,321.3c0,3.7-0.4,6.1-4.2,8c-64.6,31.6-93.8,104.7-69.2,172c25,68.1,101.3,105.3,170.5,83c63.1-20.3,102.6-81,94.8-147.1C624.5,655,598.3,619.4,554.7,596.6z"/></g>
</svg>